<?xml version="1.0" encoding="UTF-8"?>
<svg width="177px" height="26px" viewBox="0 0 177 26" version="1.1" xmlns="http://www.w3.org/2000/svg" xmlns:xlink="http://www.w3.org/1999/xlink">
    <title>coursera</title>
    <defs>
        <filter color-interpolation-filters="auto" id="filter-1">
            <feColorMatrix in="SourceGraphic" type="matrix" values="0 0 0 0 1.000000 0 0 0 0 1.000000 0 0 0 0 1.000000 0 0 0 1.000000 0"></feColorMatrix>
        </filter>
    </defs>
    <g id="Skills-Tree" stroke="none" stroke-width="1" fill="none" fill-rule="evenodd">
        <g id="Desktop-HD" transform="translate(-390.000000, -825.000000)">
            <g id="coursera" transform="translate(390.000000, 801.000000)" filter="url(#filter-1)">
                <g transform="translate(0.000000, 24.600000)">
                    <path d="M89.0078623,7.38468173 C89.1153914,5.28437089 89.8567219,3.56771682 91.015417,2.22841861 L91.015417,0.444554594 L89.475545,0.444554594 C86.3627151,0.444554594 83.7279072,1.65643395 82.195962,4.39383909 L82.1063544,4.39383909 L82.1063544,0.745599149 L74.1226625,0.745599149 L74.1226625,22.9931418 L82.1080776,22.9931418 L82.1080776,14.0118626 C82.1080776,10.1997984 83.2061153,7.29366826 87.6372108,7.29366826 C88.1197132,7.29716878 88.5711976,7.32517293 89.0078623,7.38468173 L89.0078623,7.38468173 Z M149.465416,7.30346971 C150.128512,5.33722871 151.204148,3.58591952 152.602371,2.18081156 L152.602371,0.442804335 L151.065256,0.442804335 C147.951392,0.442804335 145.319341,1.65398359 143.779469,4.39033857 L143.693308,4.39033857 L143.693308,0.745599149 L135.704447,0.745599149 L135.704447,22.9931418 L143.693308,22.9931418 L143.693308,14.0118626 C143.693308,10.1997984 144.794792,7.29366826 149.225888,7.29366826 L149.465416,7.30346971 Z M105.224079,6.46929626 C103.99232,5.8189 102.277713,5.38518581 100.913954,5.38518581 C99.9978889,5.38518581 98.4152809,5.77234311 98.4152809,6.90301045 C98.4152809,8.42223529 100.913954,8.63751715 102.01854,8.85945 C105.740702,9.59455879 108.556448,11.3308158 108.556448,15.4453247 C108.556448,21.2981909 103.157935,23.7345515 97.9317446,23.7345515 C94.7262053,23.7345515 91.5730519,22.8226666 88.8479472,21.1739225 L91.7439957,15.6623568 C93.3655484,16.7944244 96.0868621,17.9180907 98.0620202,17.9180907 C99.0721735,17.9180907 100.563451,17.4430704 100.563451,16.2283906 C100.563451,14.4935338 98.0620202,14.4025204 95.5571434,13.7535243 C93.0591594,13.1031281 90.5608308,11.8915988 90.5608308,7.90100815 C90.5608308,2.43564928 95.5571434,0.0108404044 100.482115,0.0108404044 C103.027315,0.0108404044 105.574583,0.399397911 107.89542,1.44080204 L105.224424,6.46929626 L105.224079,6.46929626 Z M176.549655,22.9931418 L168.56424,22.9931418 L168.56424,20.5182755 L168.476356,20.5182755 C167.071929,22.7299028 164.301331,23.7261503 161.673072,23.7261503 C154.997995,23.7261503 150.306004,18.217735 150.306004,11.8418914 C150.306004,5.47269876 154.914591,0.00558962726 161.58312,0.00558962726 C164.171056,0.00558962726 166.895816,0.959130751 168.562862,2.90891932 L168.562862,0.745599149 L176.546554,0.745599149 L176.55,22.9931418 L176.549655,22.9931418 Z M158.557485,11.8898485 C158.557485,14.7070654 160.447516,16.8756364 163.690621,16.8756364 C166.937173,16.8756364 168.818933,14.710566 168.818933,11.8898485 C168.818933,9.15734409 166.937173,6.85960402 163.690621,6.85960402 C160.447516,6.86170433 158.557485,9.15734409 158.557485,11.8898485 Z M134.445115,13.1941415 L117.632318,13.1941415 C117.632318,16.4006161 119.348304,18.1333725 122.638281,18.1333725 C124.349441,18.1333725 125.576721,17.5722395 126.456599,16.096071 L134.138726,16.096071 C132.865954,21.3443978 127.817255,23.7296508 122.684119,23.7296508 C115.228422,23.7296508 109.655175,19.5633342 109.655175,11.8915988 C109.655175,4.47645131 114.783486,0.0108404044 122.112009,0.0108404044 C129.922689,0.0108404044 134.448217,4.78274665 134.448217,12.3683693 L134.444771,13.1944916 L134.445115,13.1941415 Z M127.026985,8.63751715 C126.630644,6.51235263 124.655831,5.12509731 122.508005,5.12509731 C120.179242,5.12509731 118.256125,6.33522641 117.765696,8.63751715 L127.026985,8.63751715 L127.026985,8.63751715 Z M48.7233904,11.5026912 C48.7147432,11.312647 48.7027937,11.1227727 48.6875473,10.9331569 L48.6875473,10.9265059 C48.5083322,8.86260046 47.8369645,6.93101459 46.6979141,5.18635638 C46.196184,4.41736142 45.6125058,3.70689784 44.957459,3.06784284 C44.0072738,2.13915539 42.9071683,1.37114173 41.6671371,0.763801843 C39.8012313,-0.141432132 37.7395674,-0.598249741 35.539701,-0.598249741 C35.3246428,-0.598249741 35.0995898,-0.595099275 34.8731583,-0.586698031 C33.3284613,-0.515637514 31.8340824,-0.217743426 30.429311,0.306984234 C29.0128218,0.826811168 27.7793388,1.51361281 26.7705641,2.33798482 C26.5655006,2.50355933 26.3421709,2.70693943 26.1026429,2.93062253 L25.9296313,3.10249797 L25.6935498,3.35733569 L25.6966516,3.35733569 L25.5860206,3.46830211 L25.5322561,3.52781092 L25.2503368,3.82920552 C25.0472228,4.06124734 24.849458,4.29806328 24.6572035,4.53946064 L24.6554803,4.53596012 L24.6485874,4.52930914 C24.2625854,5.0060797 23.9058783,5.4993027 23.6432591,5.94281834 C23.4646316,6.22930917 23.2919269,6.51956567 23.1252583,6.81339718 L20.8226878,11.5425971 L20.8257896,11.5457476 L20.705164,11.7858831 L20.4508163,12.3088605 C19.945912,13.3467641 19.40482,14.3811672 18.7999687,15.2352936 C17.4524084,16.7363158 15.9290793,17.4714246 13.9701195,17.4714246 C13.8329509,17.4714246 13.6930252,17.4644235 13.5496531,17.4563723 C12.36959,17.4084152 11.3577135,17.1255734 10.4599144,16.5857935 C10.3652146,16.5289817 10.272123,16.4694489 10.1807522,16.4072671 C9.4476932,15.9122938 8.88557787,15.2765997 8.46511148,14.4837324 C7.99088053,13.5847994 7.78064733,12.6662634 7.81028676,11.6931194 C7.81166534,11.6665154 7.81338856,11.643412 7.81338856,11.6217088 C7.87680317,10.0727296 8.45856323,8.86750119 9.63035483,7.82644711 C9.90933177,7.58354846 10.2087068,7.36591912 10.5250522,7.17605086 C10.568822,7.14944692 10.6129365,7.12459324 10.6570511,7.10148982 C11.5272786,6.61981853 12.5181318,6.38003304 13.6537357,6.38003304 L14.0073411,6.3898345 C15.8115555,6.45949481 17.2032303,7.03217956 18.3129859,8.14919488 L21.7938963,1.80170545 C20.9608903,1.23567168 20.0206999,0.748749615 18.9843536,0.353191072 C18.9450641,0.338488896 18.904396,0.32168641 18.863728,0.308734493 C18.7396559,0.263927861 18.6176517,0.217721023 18.4904779,0.176064858 C17.3889938,-0.197790473 16.2334005,-0.427774511 15.044032,-0.532089949 C15.0143926,-0.537340726 14.981996,-0.540491193 14.9527012,-0.543641659 C14.7700396,-0.55554342 14.5842761,-0.57864684 14.4019591,-0.586698031 C14.2036428,-0.594408587 14.0052162,-0.598843163 13.8067579,-0.6 L13.6940592,-0.6 C11.505566,-0.591948808 9.47216296,-0.136531407 7.61246077,0.76520205 C5.52977353,1.78490297 3.84135969,3.26982273 2.5899552,5.18285586 C1.34199714,7.09693915 0.660634795,9.22070346 0.563100377,11.4998908 C0.554718862,11.6928875 0.550001939,11.8860425 0.550001939,12.0792265 C0.54828066,15.2664482 1.69250069,18.0703632 3.96715497,20.4241116 C6.34175617,22.8937271 9.42977168,24.224624 13.1371135,24.3817973 C13.3749183,24.3915988 13.6099659,24.3982497 13.8443242,24.3982497 C15.9418312,24.3982497 17.8825248,24.0191436 19.62298,23.2612815 C20.0582661,23.0722535 20.4804557,22.8506707 20.9119508,22.6042342 C21.1469984,22.4666639 21.3686048,22.3210423 21.5884881,22.1656193 L21.751505,22.0546529 L22.0251528,21.8642247 C22.3519012,21.6238662 22.6647799,21.3646339 22.9622414,21.0878098 L23.0666687,20.9869949 C23.2433548,20.8179001 23.4160702,20.6445758 23.5846695,20.4671679 L24.2088209,19.7506119 L24.4466256,19.447467 L24.5576012,19.2822426 L24.6685768,19.1198185 C25.5956707,17.5375844 28.6137233,11.7792321 28.6137233,11.7792321 L28.6137233,11.7676804 L28.7929385,11.4165785 L28.9428589,11.1417878 C29.3877951,10.319166 29.7090038,9.73492957 30.1342953,9.1209387 L30.1456685,9.102736 C31.138245,7.64126971 32.8442357,6.59986558 34.8552368,6.42483968 C38.2286181,6.13009605 41.1846347,8.38092918 41.4569039,11.4529838 C41.7274499,14.5250385 39.2111998,17.2543925 35.8378185,17.5508863 C35.1354329,17.6121454 34.452692,17.5641883 33.8088959,17.419967 L33.7926976,17.426968 C31.3174601,16.9036405 29.7414004,15.0697191 28.9642269,14.2502478 L25.7176749,20.3131451 C25.7176749,20.3131451 26.7267942,21.346148 27.4178066,21.8624744 C28.1105423,22.3770506 29.004895,22.8839256 29.7186539,23.1982721 C31.4508376,23.9498334 33.3346649,24.4 35.4156289,24.4 C35.6568801,24.4 35.6082853,24.4 35.8591865,24.3901985 C39.5630819,24.2326752 42.864777,22.7911619 45.2459265,20.3215464 C47.5012807,17.9761993 48.7251136,15.2983029 48.7364869,12.1282338 L48.7364869,12.0337198 C48.7345213,11.8566576 48.7301554,11.6796313 48.7233904,11.5026912 L48.7233904,11.5026912 Z M61.1412795,23.744703 C59.4576907,23.744703 57.9309152,23.5458736 56.5602637,23.1485648 C55.1896121,22.751256 54.0195438,22.1239631 53.0500585,21.2635358 C52.0771269,20.4024084 51.3275249,19.3067462 50.7995294,17.9779495 C50.2715339,16.6488028 50.0075361,15.0466157 50.0075361,13.1794394 L50.0075361,0.740698423 L57.7106873,0.740698423 L57.7106873,13.0800246 C57.7106873,14.4788317 58.0398229,15.4918816 58.6963708,16.1240752 C59.3549866,16.7576689 60.1910944,17.0741158 61.2046941,17.0741158 C62.2410404,17.0741158 63.0819732,16.7793721 63.7309389,16.1884847 C64.3761136,15.5975972 64.7018027,14.6178022 64.7018027,13.2406984 L64.7018027,0.740348372 L72.4049539,0.740348372 L72.4049539,13.0156151 C72.4049539,14.9489512 72.1347526,16.5924445 71.5950391,17.9446946 C71.0556704,19.298695 70.2946951,20.4045087 69.3152152,21.264936 C68.3309103,22.1260635 67.1463668,22.751256 65.7529687,23.150315 C64.3595707,23.5458736 62.8228005,23.744353 61.1412795,23.744353 L61.1412795,23.744703 Z" id="Shape" fill="#717172" fill-rule="nonzero"></path>
                </g>
            </g>
        </g>
    </g>
</svg>