<?xml version="1.0" encoding="UTF-8"?>
<svg width="169px" height="48px" viewBox="0 0 169 48" version="1.1" xmlns="http://www.w3.org/2000/svg" xmlns:xlink="http://www.w3.org/1999/xlink">
    <title>udemy-2</title>
    <defs>
        <filter color-interpolation-filters="auto" id="filter-1">
            <feColorMatrix in="SourceGraphic" type="matrix" values="0 0 0 0 1.000000 0 0 0 0 1.000000 0 0 0 0 1.000000 0 0 0 1.000000 0"></feColorMatrix>
        </filter>
    </defs>
    <g id="Skills-Tree" stroke="none" stroke-width="1" fill="none" fill-rule="evenodd">
        <g id="Desktop-HD" transform="translate(-617.000000, -814.000000)">
            <g id="udemy-2" transform="translate(390.000000, 801.000000)" filter="url(#filter-1)">
                <g transform="translate(227.550000, 13.325000)">
                    <path d="M130.844507,25.0239273 L130.844507,35.6446551 L126,35.6446551 L126,20.1080476 L129.391155,20.1080476 L130.406939,21.3370176 C133.891858,18.7425255 137.954993,19.4252866 139.845913,21.8225365 L140.736678,21.1549479 C142.67448,19.7135635 144.831067,19.3494242 147.143929,19.9563229 C148.597281,20.3356347 149.706829,21.2004653 150.206907,22.5811599 C150.581966,23.6432327 150.910142,24.7659954 150.941397,25.8735855 C151.035162,28.999114 150.988279,32.1246424 150.988279,35.2501709 C150.972652,35.4018956 150.957025,35.5384478 150.92577,35.675 L146.081263,35.675 L146.081263,32.9591282 L146.081263,27.9066963 C146.081263,27.6032469 146.081263,27.2846251 146.050008,26.9811757 C145.846851,24.6142707 144.471636,23.7190951 142.12752,24.4473735 C141.705579,24.5990982 141.314893,24.7811678 140.924207,24.9784099 L140.924207,35.6446551 L135.985935,35.6446551 L135.985935,34.5370649 L135.985935,27.7397991 L135.985935,27.4363498 C135.923426,24.4777185 134.048133,23.4156457 131.31333,24.7659954 C131.172683,24.8115128 131.063291,24.8873751 130.844507,25.0239273 L130.844507,25.0239273 Z" id="Path" fill="#675D55" fill-rule="nonzero"></path>
                    <path d="M83.8832201,13.9740457 L88.9274438,13.9740457 C88.95839,14.221483 88.9893361,14.4225258 88.9893361,14.6235686 C88.973863,18.7836078 88.973863,22.9591119 88.9274438,27.1191512 C88.9119707,27.8923927 88.8191323,28.6501693 88.6489284,29.407946 C87.9216937,32.7174196 85.9101934,34.7278475 82.5370622,35.3619055 C80.2625196,35.8103856 77.9106116,35.7794559 75.6670152,35.2536517 C72.5569263,34.5113399 70.6382645,32.1761506 70.2359645,28.6965638 C70.0967067,27.3356588 70.0193413,25.9747538 70.0193413,24.6138487 C69.9883952,21.4280937 70.0038683,18.2423388 70.0038683,15.0565838 L70.0038683,13.9740457 L75.0790382,13.9740457 L75.0790382,15.1648376 C75.0790382,18.5980299 75.048092,22.0312221 75.0945112,25.4644144 C75.1099843,26.4386987 75.249242,27.4129829 75.4968113,28.3563376 C75.7907998,29.5161998 76.610873,30.3667655 77.8177731,30.5368786 C78.9473079,30.7069917 80.1077888,30.7069917 81.2373236,30.5368786 C82.6299007,30.320371 83.3571354,29.2532977 83.6356508,27.9233223 C83.7903816,27.134616 83.867747,26.3304448 83.867747,25.5262737 C83.8986932,21.7219255 83.8832201,17.9021125 83.8832201,13.9740457 L83.8832201,13.9740457 Z M107,35.2072572 L104.013696,35.2072572 L103.13173,34.1092543 C101.460638,35.315511 99.5883952,35.7021318 97.5614219,35.5629483 C94.3275484,35.3309759 92.0684788,33.5370556 91.2019864,30.4131599 C90.6449556,28.4491265 90.6449556,26.3768393 91.2174595,24.4128059 C92.1458442,21.227051 94.8226869,19.0774396 98.1493988,18.953721 C99.4646106,18.9073265 100.779822,19.0774396 102.172399,19.1702286 L102.172399,12.675 L107,12.675 L107,35.2072572 Z M102.156926,30.6296676 L102.156926,23.6240996 C101.862938,23.4849161 101.599895,23.3302678 101.305907,23.2374789 C98.8456874,22.3714484 96.617564,23.3457327 95.9831678,25.6035978 C95.828437,26.0984724 95.7510716,26.6242766 95.7510716,27.1500808 C95.7820178,28.6965638 96.0450601,30.2121172 97.592368,31.0008235 C99.1396759,31.774065 100.702457,31.5730222 102.156926,30.6296676 Z" id="Shape" fill="#665C54" fill-rule="nonzero"></path>
                    <path d="M124.9905,28.4100666 L115.164831,28.4100666 C114.890626,29.7766471 115.774175,31.1432276 117.251834,31.5888516 C118.912295,32.0938923 120.587991,31.9304968 122.233219,31.4403103 C122.918731,31.2323524 123.558542,30.9204155 124.289754,30.6233328 L123.665177,34.2031796 C122.644526,35.0647195 121.425839,35.4212187 120.146217,35.5697601 C118.42482,35.7628639 116.703424,35.7183014 115.027729,35.1984067 C112.74269,34.470554 111.188863,32.9999946 110.488117,30.75702 C109.86354,28.78142 109.833073,26.6721326 110.427183,24.6965326 C111.265031,21.8148302 113.656705,19.9135008 116.733891,19.720397 C117.586973,19.6461263 118.455288,19.6609805 119.308369,19.7798136 C121.669576,20.151167 123.314804,21.4731851 124.198353,23.6418889 C124.82293,25.1273025 125.051434,26.7166951 124.9905,28.4100666 Z M115.042962,26.1076755 L121.044999,26.1076755 C120.907896,24.1766378 119.506406,23.2556814 118.150616,23.2556814 C116.413986,23.2705355 115.2867,24.2657626 115.042962,26.1076755 Z" id="Shape" fill="#675C55" fill-rule="nonzero"></path>
                    <path d="M156.28111,19.6903173 C156.874664,21.3905361 157.452999,23.0754376 158.046553,24.7603392 C158.624888,26.460558 159.203223,28.1607768 159.872874,30.1060722 L163.282005,19.675 L168,19.675 L159.766338,40.675 L154.987466,40.675 L157.255148,34.8544311 L151,19.6903173 L156.28111,19.6903173 Z" id="Path" fill="#665C55" fill-rule="nonzero"></path>
                    <path d="M37.3764577,22.8566207 L36.683766,24.2738259 C34.4979388,29.1045149 32.1120006,33.8437712 29.0025844,38.1868196 C27.3555175,40.4878733 25.5237327,42.6060618 23.1993671,44.2823261 C21.1058988,45.7757252 18.7969264,46.6900512 16.180091,46.675 C13.3323584,46.6595737 11.0387792,45.5014274 9.34553272,43.2308513 C7.80621779,41.158379 7.19049181,38.7658927 7.00577402,36.2362575 C6.75948363,32.8532514 7.34442331,29.5616778 8.11408078,26.3005819 C8.29879857,25.5386435 8.45273006,24.7767052 8.652841,23.877618 C7.96014928,24.2738259 7.37520961,24.6243176 6.79026993,24.9290929 C5.80510837,25.4624497 4.75837422,25.7824638 3.61928117,25.7519863 C1.38727451,25.6453149 -0.0596815269,24.0300057 0.00189107048,21.7594295 C1.64895805,20.3422242 3.31141818,19.0621678 4.78916052,17.5840075 C8.7144136,13.6676446 11.7160777,9.09601466 14.009657,4.08246053 C14.3329131,3.33576098 14.7177418,2.6043002 15.1333569,1.90331695 C16.2262705,0.166097585 17.9810895,-0.611079499 19.7974811,-0.23011034 C21.536907,0.135620052 22.6298206,1.43091519 22.983863,3.50338741 C23.4456575,6.17017152 22.8915041,8.74552303 22.2757782,11.3056358 C21.0443262,16.3344287 19.7513017,21.3632216 18.550636,26.4072532 C17.9656964,28.8759334 17.6424402,31.3903298 17.8117649,33.9352038 C17.8579443,34.6819033 18.0118758,35.4286029 18.2581662,36.1295861 C18.7815333,37.5010751 19.9975921,37.8515667 21.1366851,36.9067632 C21.84477,36.2972126 22.4758891,35.6267069 23.0454356,34.8952461 C26.2626039,30.856973 28.9102255,26.4529695 31.2807705,21.8965784 C33.2972731,18.010693 35.2829894,14.1095688 37.2994919,10.2236834 C37.6381412,9.55317765 38.0383631,8.91314946 38.4231918,8.27312128 C39.9317205,5.8196799 43.6106832,6.03302262 45.0884255,8.45598647 C45.8888693,9.76652038 46.273698,11.2294419 46.38145,12.7380798 C46.5045952,14.3076727 46.5353815,15.8772657 46.5969541,17.4468586 C46.7354925,20.8603423 46.8586377,24.2738259 47.0279623,27.6873096 C47.0741418,28.3273378 47.2126801,28.967366 47.4589705,29.5769166 C47.9053718,30.7198241 48.751995,31.1465095 49.9372675,30.7960179 C50.599173,30.6131527 51.2302921,30.3236162 51.7844455,29.9274082 C53.3545467,28.7540232 54.8476822,27.5044444 56.479356,26.1939105 C57.1566546,26.3920145 57.5568765,26.9863263 57.7877737,27.7330259 C58.2187819,29.1502312 57.9417052,30.5217201 57.4183381,31.832254 C55.9559889,35.5200355 53.0620769,37.5925077 49.2907553,38.4154011 C47.8437992,38.7049377 46.3506637,38.7658927 44.8729214,38.5677888 C41.9944025,38.2172971 40.0702588,36.4953165 38.9465589,33.8742487 C37.8998248,31.4360461 37.6535344,28.8606946 37.5457823,26.2548656 C37.4996029,25.1424356 37.5457823,24.0300057 37.5457823,22.902337 L37.3764577,22.8566207 Z" id="Path" fill="#EC5250" fill-rule="nonzero"></path>
                </g>
            </g>
        </g>
    </g>
</svg>